# xmcd CD database file
# Generated: Sat Nov 18 07:16:59 2000 by KSCD
# 
# Track frame offsets:
#       150
#       25820
#       51860
#       70647
#       94445
#       117880
#       138162
#       160802
#       187077
#       207790
#
# Disc length: 3060 seconds
#
# Revision: 2
# Processed by: cddbd v1.4b41PL1 Copyright (c) Steve Scherf et al.
# Submitted via: Kscd 1.3.0
#
DISCID=870bf20a
DTITLE=Stacy Lattisaw - What You Need
DYEAR=1900
DGENRE=
TTITLE0=What You Need
TTITLE1=Dance For You
TTITLE2=You Touched The Woman In Me
TTITLE3=R U Man Enuff
TTITLE4=Guilty (Lock Me Up)
TTITLE5=Falling (In Love Again)
TTITLE6=I Don't Have The Heart
TTITLE7=Where Do We Go From Here
TTITLE8=Tender Love
TTITLE9=That's The Reason Why I Love
EXTD=
EXTT0=
EXTT1=
EXTT2=
EXTT3=
EXTT4=
EXTT5=
EXTT6=
EXTT7=
EXTT8=
EXTT9=
PLAYORDER=
